<?xml version="1.0" standalone="no"?>
<!DOCTYPE svg PUBLIC "-//W3C//DTD SVG 20010904//EN"
 "http://www.w3.org/TR/2001/REC-SVG-20010904/DTD/svg10.dtd">
<svg version="1.0" xmlns="http://www.w3.org/2000/svg"
 width="848.000000pt" height="848.000000pt" viewBox="0 0 848.000000 848.000000"
 preserveAspectRatio="xMidYMid meet">
<metadata>
Created by potrace 1.14, written by Peter Selinger 2001-2017
</metadata>
<g transform="translate(0.000000,848.000000) scale(0.100000,-0.100000)"
fill="#000000" stroke="none">
<path d="M1527 7563 c-3 -3 -21 -6 -39 -8 -82 -6 -362 -78 -403 -103 -5 -4
-12 -7 -15 -7 -11 0 -185 -90 -188 -97 -2 -4 -8 -8 -14 -8 -11 0 -195 -125
-253 -172 -126 -102 -319 -323 -398 -453 -62 -102 -156 -326 -172 -410 -2 -11
-4 -20 -5 -20 -1 0 -3 -16 -6 -35 -2 -19 -7 -46 -10 -60 -4 -14 -9 -32 -11
-40 -2 -8 -6 -75 -8 -147 -3 -99 -1 -143 10 -175 50 -143 126 -214 269 -252
45 -11 92 -14 195 -10 75 3 390 6 701 7 509 2 569 4 604 20 42 18 81 55 111
102 24 38 29 135 10 190 -18 52 -91 118 -147 134 -33 9 -200 12 -671 9 l-628
-3 6 40 c12 93 43 208 70 270 8 17 18 41 24 55 6 14 17 34 23 44 7 11 28 44
46 74 37 59 48 73 107 141 52 60 97 102 170 162 94 77 168 129 183 129 6 0 12
4 14 8 10 24 213 107 323 132 232 54 527 42 757 -30 62 -20 74 -24 133 -51 34
-15 151 -88 186 -115 35 -28 209 -202 209 -209 0 -3 11 -17 24 -30 13 -13 39
-44 57 -69 18 -25 36 -46 41 -46 4 0 8 -5 8 -11 0 -6 21 -39 48 -73 96 -124
122 -179 138 -292 11 -78 13 -90 19 -139 3 -27 11 -75 17 -105 6 -30 13 -61
14 -68 7 -39 98 -177 147 -222 49 -47 228 -125 327 -144 14 -2 48 -10 75 -16
117 -27 175 -40 215 -45 19 -3 58 -10 85 -15 59 -11 213 -37 270 -45 22 -4 51
-8 65 -11 14 -3 45 -7 70 -10 42 -4 62 -7 115 -18 11 -2 47 -7 80 -11 32 -4
68 -9 80 -11 18 -4 56 -9 155 -19 19 -2 51 -6 70 -9 19 -3 58 -8 85 -11 28 -3
59 -8 70 -10 11 -2 47 -7 80 -10 33 -4 71 -8 85 -11 14 -2 52 -6 85 -10 33 -3
71 -8 85 -10 44 -8 73 -12 140 -19 36 -3 79 -8 95 -11 17 -2 48 -6 70 -8 126
-13 162 -17 185 -22 14 -2 48 -7 75 -10 63 -6 98 -10 155 -18 25 -3 68 -8 95
-11 130 -14 152 -17 185 -21 19 -3 51 -7 70 -9 19 -2 55 -7 80 -9 25 -3 56 -8
70 -10 14 -2 54 -7 90 -11 132 -14 191 -21 240 -30 14 -3 48 -7 75 -9 84 -8
160 -18 167 -22 4 -3 36 -7 71 -9 36 -3 75 -8 88 -11 47 -9 85 -14 130 -18 26
-2 51 -6 55 -8 5 -2 20 -5 34 -6 14 -1 45 -6 70 -11 38 -8 41 -10 23 -16 -13
-4 -23 -11 -23 -15 0 -5 -10 -12 -22 -16 -12 -3 -50 -24 -85 -45 -35 -22 -65
-39 -68 -39 -3 0 -36 -20 -75 -45 -39 -25 -75 -45 -80 -45 -6 0 -10 -4 -10 -8
0 -5 -10 -13 -22 -19 -49 -23 -389 -270 -464 -338 -6 -5 -40 -35 -75 -65 -176
-153 -382 -359 -519 -520 -12 -14 -29 -34 -38 -45 -98 -114 -202 -245 -202
-254 0 -6 -3 -11 -7 -11 -5 0 -37 -39 -73 -88 -35 -48 -67 -89 -70 -92 -3 -3
-14 -18 -24 -35 -11 -16 -23 -34 -28 -40 -5 -5 -31 -41 -58 -80 -27 -38 -53
-74 -57 -80 -5 -5 -16 -21 -26 -34 -16 -24 -17 -21 -17 85 0 105 -5 197 -15
277 -3 20 -8 56 -11 80 -3 23 -14 83 -25 132 -11 50 -22 101 -25 115 -8 41
-91 284 -114 336 -57 126 -120 245 -135 256 -5 4 -7 8 -3 8 11 0 -114 182
-178 260 -96 117 -254 270 -349 338 -6 4 -26 18 -45 32 -89 65 -281 166 -384
202 -128 45 -244 -2 -298 -121 -28 -61 -20 -153 17 -210 27 -40 81 -82 125
-96 29 -9 155 -69 185 -88 178 -110 324 -240 420 -373 11 -15 25 -32 30 -38
18 -19 65 -94 87 -136 7 -14 15 -27 19 -30 8 -7 100 -196 103 -212 1 -7 10
-31 20 -53 19 -45 76 -241 82 -285 1 -8 4 -26 7 -40 26 -127 30 -188 30 -385
0 -175 -5 -232 -39 -423 -3 -18 -12 -56 -20 -85 -8 -29 -16 -59 -18 -67 -15
-80 -103 -298 -176 -437 -49 -94 -180 -306 -200 -323 -3 -3 -30 -36 -60 -75
-30 -38 -95 -111 -143 -162 -85 -88 -90 -91 -137 -95 l-49 -3 -7 40 c-20 122
-100 278 -192 377 -50 54 -154 138 -170 138 -6 0 -12 4 -14 9 -10 26 -420 199
-490 206 -86 9 -189 -56 -225 -143 -22 -52 -18 -132 8 -183 31 -62 71 -93 174
-135 185 -76 280 -118 293 -131 7 -7 17 -13 22 -13 15 0 85 -72 108 -111 40
-66 45 -64 -196 -64 -136 1 -232 -3 -258 -11 -78 -22 -142 -88 -159 -164 -10
-47 -8 -111 4 -123 6 -6 11 -17 11 -24 0 -28 63 -90 116 -114 40 -18 75 -19
625 -18 579 1 584 1 624 22 60 33 472 450 551 559 21 29 44 60 51 68 31 39
183 251 183 256 0 3 6 11 13 18 6 7 48 66 92 130 44 65 90 129 102 144 13 15
23 33 23 40 0 7 7 15 15 18 8 4 15 10 15 14 0 4 23 41 50 81 28 41 79 117 115
169 56 83 109 160 286 415 53 76 181 248 189 255 3 3 17 21 30 40 13 19 29 40
35 46 5 6 19 23 30 38 11 16 25 33 30 40 6 6 44 52 85 101 91 110 120 142 235
263 132 139 196 200 325 310 30 26 62 54 71 62 9 8 29 25 45 37 61 45 150 113
161 123 7 5 16 10 22 10 5 0 11 4 13 8 3 10 166 121 243 167 28 16 58 34 67
40 98 60 344 188 463 242 115 52 198 89 235 103 120 47 181 126 185 238 1 49
-3 77 -17 102 -10 19 -18 39 -19 45 -1 20 -104 96 -158 116 -47 17 -122 40
-181 54 -87 20 -110 25 -255 51 -98 17 -107 19 -180 28 -27 4 -61 9 -75 12
-14 3 -40 8 -57 10 -57 7 -97 12 -135 18 -67 10 -107 16 -160 22 -29 3 -64 8
-78 10 -39 8 -71 12 -130 18 -30 4 -73 9 -95 12 -22 3 -53 7 -70 8 -82 10
-152 19 -167 21 -9 2 -48 7 -85 10 -37 4 -79 9 -93 11 -32 6 -69 11 -145 18
-33 4 -74 8 -90 10 -64 9 -132 17 -180 21 -27 3 -61 7 -75 10 -24 4 -84 11
-165 20 -22 2 -53 6 -70 8 -16 3 -61 9 -100 13 -38 4 -78 8 -87 10 -10 1 -19
2 -20 3 -2 1 -25 4 -53 6 -27 2 -66 6 -85 9 -19 3 -75 10 -125 16 -49 6 -105
13 -122 15 -81 12 -101 14 -153 20 -30 3 -68 7 -85 10 -41 6 -113 16 -154 20
-19 2 -48 6 -65 9 -17 2 -53 8 -81 11 -27 4 -61 9 -75 11 -14 2 -45 6 -70 10
-25 3 -74 10 -110 16 -36 5 -74 11 -85 13 -86 12 -159 24 -240 39 -11 2 -42 7
-68 10 -27 4 -56 9 -65 11 -10 2 -62 13 -117 25 -145 30 -144 30 -220 51 -38
10 -72 24 -73 29 -2 6 -10 17 -18 25 -17 17 -19 25 -29 115 -4 36 -9 74 -11
85 -3 11 -7 36 -10 55 -3 19 -12 60 -19 90 -14 54 -14 55 14 85 15 16 35 42
44 57 20 32 36 127 26 154 -4 10 -13 34 -19 51 -36 95 -157 151 -267 124 -45
-12 -49 -11 -66 11 -10 13 -29 36 -43 52 -13 16 -34 43 -46 60 -40 53 -189
209 -254 266 -48 43 -167 132 -184 138 -8 3 -31 17 -50 30 -43 29 -161 85
-215 101 -22 7 -47 15 -55 18 -21 8 -25 9 -110 32 -80 20 -146 33 -250 47 -60
8 -446 14 -453 7z"/>
<path d="M1649 5161 c-108 -61 -147 -171 -106 -291 105 -306 168 -428 300
-584 l39 -45 -24 -23 c-67 -65 -167 -193 -201 -256 -17 -32 -56 -126 -62 -147
-1 -5 -5 -17 -8 -25 -3 -8 -15 -49 -27 -90 -11 -41 -23 -84 -26 -95 -10 -37
-5 -120 9 -155 33 -78 129 -140 216 -140 52 0 132 41 169 86 27 32 54 98 67
164 2 8 8 27 14 43 6 15 9 27 6 27 -4 0 16 55 38 100 15 33 63 97 102 136 33
34 96 109 108 130 12 21 299 20 316 0 27 -32 136 -51 201 -34 49 13 107 62
138 117 19 34 26 119 13 167 -22 81 -107 151 -237 195 -61 21 -87 23 -239 24
l-170 0 -30 40 c-16 22 -45 57 -64 78 -53 57 -124 171 -136 217 -1 3 -7 19
-14 35 -6 17 -16 44 -22 60 -6 17 -15 39 -19 50 -4 11 -13 36 -20 55 -34 98
-57 128 -123 162 -64 33 -150 33 -208 -1z"/>
<path d="M3940 4459 c-101 -15 -118 -19 -188 -43 -157 -54 -272 -126 -393
-246 -75 -75 -199 -248 -199 -279 0 -5 -11 -33 -24 -62 -43 -95 -65 -227 -61
-374 3 -135 6 -160 31 -259 81 -318 310 -559 633 -666 68 -22 108 -33 140 -36
13 -2 31 -6 39 -9 9 -3 39 -8 68 -11 212 -24 337 228 189 381 -40 40 -81 60
-150 72 -106 17 -214 52 -246 80 -8 7 -20 13 -26 13 -5 0 -36 24 -69 54 -65
59 -122 158 -143 251 -28 123 -17 270 30 370 74 161 239 288 402 310 18 2 54
7 82 10 89 12 143 51 185 133 57 110 -16 275 -135 307 -40 11 -110 13 -165 4z"/>
</g>
</svg>
